<svg width="100" height="100" viewBox="0 0 100 100" fill="none" xmlns="http://www.w3.org/2000/svg">
<rect width="100" height="100" rx="19" fill="#F37021"/>
<path d="M78.2566 34.1765L88 30.5842V21L76.2083 30.2389C75.4663 30.8108 75.0134 31.3793 75.0134 32.2338C75.0134 33.7161 76.4382 34.8566 78.2601 34.173M75.0099 67.428H81.2768V37.2003H75.0099V67.4315V67.428ZM46.5809 67.428H52.8478V55.7931H68.5132V50.0908H52.8478C52.7328 45.358 55.9237 42.505 60.3095 42.505C62.7027 42.505 64.7545 43.3595 66.2907 44.4442L70.2793 39.9381C67.3741 37.7723 64.2389 36.6283 60.4802 36.6283C52.2207 36.6283 46.5809 42.104 46.5809 50.0908V67.4315V67.428ZM18.3818 49.1212C19.2945 45.0162 22.5411 42.505 27.0418 42.505C31.5426 42.505 34.6185 45.0162 35.1898 49.1212H18.3818ZM41.6239 51.6881C41.6239 44.7302 36.6111 36.6318 27.0384 36.6318C18.6082 36.6283 12 42.9584 12 52.0857C12 61.213 18.664 68 27.6654 68C33.2495 68 37.7502 65.318 40.7112 61.3839L36.3254 57.7916C34.1622 60.6445 31.1977 62.1267 27.4947 62.1267C22.5969 62.1267 19.291 59.3331 18.3783 54.827H38.527C40.4639 54.827 41.6204 53.9133 41.6204 51.6881" fill="white"/>
</svg>
